<svg xmlns="http://www.w3.org/2000/svg" viewBox="0 0 771.87 93.17"><defs><style>.cls-1{fill:#d7f205;}.cls-2{fill:#9fa3a6;}</style></defs><g id="Camada_2" data-name="Camada 2"><g id="Camada_1-2" data-name="Camada 1"><path class="cls-1" d="M92.8.34S87.3.42,87,7.83s7,8.33,7,8.33l23.76.31V88.24s.62,4.13,8,4,7.19-6.8,7.19-6.8V5.46s-1.38-4.36-5.2-5.12S92.8.34,92.8.34Z"/><circle class="cls-2" cx="156.2" cy="7.91" r="7.91"/><circle class="cls-2" cx="53.34" cy="46.3" r="7.91"/><circle class="cls-1" cx="243.91" cy="46.3" r="7.91"/><circle class="cls-2" cx="387.95" cy="82.22" r="9.99"/><circle class="cls-2" cx="675.45" cy="85.26" r="7.91"/><circle class="cls-2" cx="763.96" cy="46.3" r="7.91"/><path class="cls-1" d="M7.52,0H53.35A7.24,7.24,0,0,1,59.6,3.39a9.4,9.4,0,0,1,1.25,4.9c.06,5.54-4.16,7.17-6.16,7.62a6.93,6.93,0,0,1-1.57.17H7.31a7.16,7.16,0,0,1-1.85-.23C3.57,15.33.23,13.7,0,8.67a8.17,8.17,0,0,1,3.42-7.4A7,7,0,0,1,7.52,0Z"/><path class="cls-1" d="M7.93,76.72H53.75A7.25,7.25,0,0,1,60,80.1,9.46,9.46,0,0,1,61.25,85c.06,5.54-4.16,7.16-6.16,7.62a6.87,6.87,0,0,1-1.57.17H7.71a6.86,6.86,0,0,1-1.85-.24C4,92,.63,90.41.41,85.39A8.17,8.17,0,0,1,3.83,78,7,7,0,0,1,7.93,76.72Z"/><path class="cls-1" d="M7.77,38.63h23a7.25,7.25,0,0,1,7.29,7.09c0,.07,0,.13,0,.19a8.38,8.38,0,0,1-1.86,5.55,6.87,6.87,0,0,1-5.31,2.36H6.13s-5.61,0-6-7.16a1.48,1.48,0,0,0,0-.21A7.6,7.6,0,0,1,7.77,38.63Z"/><path class="cls-1" d="M198.49,0h45.82a7.24,7.24,0,0,1,6.26,3.39,9.49,9.49,0,0,1,1.25,4.9c.06,5.54-4.16,7.17-6.16,7.62a6.93,6.93,0,0,1-1.57.17H198.28a7.16,7.16,0,0,1-1.85-.23c-1.89-.52-5.23-2.15-5.45-7.18a8.19,8.19,0,0,1,3.41-7.4A7.05,7.05,0,0,1,198.49,0Z"/><path class="cls-1" d="M198.6,39h23a7.25,7.25,0,0,1,7.29,7.09c0,.06,0,.12,0,.19a8.38,8.38,0,0,1-1.86,5.55,6.91,6.91,0,0,1-5.31,2.36H197s-5.61-.06-6-7.17a1.48,1.48,0,0,0,0-.21A7.59,7.59,0,0,1,198.6,39Z"/><path class="cls-1" d="M198.49,76.13h45.82a7.26,7.26,0,0,1,6.26,3.39,9.52,9.52,0,0,1,1.25,4.9c.06,5.55-4.16,7.17-6.16,7.63a7.55,7.55,0,0,1-1.57.17H198.28a7.17,7.17,0,0,1-1.85-.24c-1.89-.52-5.23-2.15-5.45-7.18a8.2,8.2,0,0,1,3.41-7.4A7.05,7.05,0,0,1,198.49,76.13Z"/><path class="cls-1" d="M718.54,0h45.82a7.24,7.24,0,0,1,6.26,3.39,9.4,9.4,0,0,1,1.25,4.9c.06,5.54-4.16,7.17-6.16,7.62a6.93,6.93,0,0,1-1.57.17H718.33a7.16,7.16,0,0,1-1.85-.23c-1.89-.52-5.23-2.15-5.45-7.18a8.19,8.19,0,0,1,3.41-7.4A7.05,7.05,0,0,1,718.54,0Z"/><path class="cls-1" d="M718.65,39h23A7.25,7.25,0,0,1,749,46.05a1.15,1.15,0,0,1,0,.19,8.38,8.38,0,0,1-1.86,5.55,6.91,6.91,0,0,1-5.31,2.36H717s-5.61-.06-6-7.17a1.48,1.48,0,0,0,0-.21A7.61,7.61,0,0,1,718.65,39Z"/><path class="cls-1" d="M718.54,76.13h45.82a7.26,7.26,0,0,1,6.26,3.39,9.42,9.42,0,0,1,1.25,4.9c.06,5.55-4.16,7.17-6.16,7.63a7.55,7.55,0,0,1-1.57.17H718.33a7.17,7.17,0,0,1-1.85-.24c-1.89-.52-5.23-2.15-5.45-7.18a8.2,8.2,0,0,1,3.41-7.4A7.05,7.05,0,0,1,718.54,76.13Z"/><path class="cls-1" d="M594,.61,672.7.79c7.11,0,8.69,5.34,5.51,8.81-3.63,4-65.22,68-78.9,81a7.62,7.62,0,0,1-8.42,1.65c-2.09-1-4.17-2.78-4.17-6.9,0-8.4,65.81-69.57,65.81-69.57L592,16.05s-5-1.34-5.28-6.45c-.11-2.39,0-4.28,1.73-6.21A8.32,8.32,0,0,1,594,.61Z"/><path class="cls-1" d="M469,85.65c.11,2.24-5.81,9.37-11.77,5.76-6.41-3.88-74.36-73.8-77.68-77.22-.09-.09-5.42-4.93,1.1-11.44,2.77-2.78,7-1.9,8.91-1.29a4.26,4.26,0,0,1,1.7,1l59.31,58.29a1,1,0,0,0,1.77-.74V7.16c0-.19-.5-6.55,8.56-6.55,7.19,0,8.1,3.15,8.1,7.33,0,4.76,0,72.65,0,77.4"/><path class="cls-1" d="M521.82,8V84.19a8,8,0,0,0,7.49,8h.19a8,8,0,0,0,8.26-8V8.08A7.92,7.92,0,0,0,537.49,6a7.61,7.61,0,0,0-7.07-6l-.29,0A8,8,0,0,0,521.82,8Z"/><path class="cls-1" d="M319.42,17.16l-2.91-4.75a6.6,6.6,0,0,1-.63-1.38c-.63-2-1.25-6,4.43-9.72,6.58-4.28,12.54,4.12,12.54,4.12s5.35,7.65,5.82,21.71c.33,9.69-8.66,19.38-14.28,24.47a6.33,6.33,0,0,0-.8,8.46l13.82,18.5a6.14,6.14,0,0,1,1.26,3.78c0,2.77-.9,7.25-5.82,9-7.34,2.6-10.85-2.9-10.85-2.9L298.16,56.7a6.27,6.27,0,0,1-1.27-3.53,19.75,19.75,0,0,1,.19-3.71c.46-3.06,2.14-8.71,11.41-8.71,3.66,0,13-7.79,13-13.61L320.6,21A18.89,18.89,0,0,0,319.42,17.16Z"/></g></g></svg>