<svg xmlns="http://www.w3.org/2000/svg" viewBox="0 0 149.74 227.82">
  <defs>
    <style>.cls-1{fill:#d7f205;}.cls-2{fill:#9fa3a6;}</style>
  </defs>
  <g id="Camada_2" data-name="Camada 2">
    <g id="Camada_1-2" data-name="Camada 1">
      <path class="cls-1" d="M18.2,0H130.8a19.38,19.38,0,0,1,14.37,6.13,17.44,17.44,0,0,1,4.57,12.13c0,.4,0,.79,0,1.18-.51,10.08-6.9,17.85-17,17.85H18.83a18.75,18.75,0,0,1-15.37-7.7A19.15,19.15,0,0,1,0,18.64,17.83,17.83,0,0,1,4.24,6.18,18.35,18.35,0,0,1,18.2,0Z"/><path class="cls-1" d="M18.2,190.53H130.8a19.38,19.38,0,0,1,14.37,6.13,17.44,17.44,0,0,1,4.57,12.13c0,.4,0,.79,0,1.18-.51,10.08-6.9,17.85-17,17.85H18.83a18.75,18.75,0,0,1-15.37-7.7,19.17,19.17,0,0,1-3.45-11,17.82,17.82,0,0,1,4.23-12.46A18.35,18.35,0,0,1,18.2,190.53Z"/>
      <path class="cls-2" d="M130.33,95.71a19.11,19.11,0,1,1-1.38.11"/>
      <path class="cls-1" d="M25.92,95.21H73.83A20.11,20.11,0,0,1,94,113.69c0,.38,0,.78.06,1.18.2,7-2.32,11.38-5.22,14.06a16.08,16.08,0,0,1-11,4.13H19.36a19.64,19.64,0,0,1-16.45-8.54A21,21,0,0,1,0,114.13c0-5.29,1-8.95,4.42-12.43C10.92,95.21,19.11,95.21,25.92,95.21Z"/>
    </g>
  </g>
</svg>
